# xmcd
#
# Track frame offsets:
# 150
# 14841
# 36772
# 55299
# 69773
# 84316
# 101798
# 120150
# 138849
# 158023
# 178857
# 195818
# 212981
# 232866
# 246947
#
# Disc length: 3570 seconds
#
#
# Revision: 0
# Processed by: cddbd v1.5.1PL2 Copyright (c) Steve Scherf et al.
# Submitted via: FreeRIP 2.944 
#
DISCID=be0df00f
DTITLE=Jeff Brown - Mate I'm Feelin' Lucky
DYEAR=2004
DGENRE=Country
TTITLE0=Mate I'm Feelin' Lucky
TTITLE1=Sandy Kid
TTITLE2=The Jacaranda Tree
TTITLE3=If Those Lips Could Only Speak
TTITLE4=From The Man Upon The Land
TTITLE5=Plonky Joe
TTITLE6=Boots and All
TTITLE7=Send 'Er Down Hughie
TTITLE8=Bucking Reins and Bullropes
TTITLE9=Where The Yellow Kapocks Bloom
TTITLE10=My Young Place of Abode
TTITLE11=If I Had A Stockhorse
TTITLE12=Fred Gutte
TTITLE13=Two Little Girls in Blue
TTITLE14=Travellers Prayer
EXTD=
EXTT0=
EXTT1=
EXTT2=
EXTT3=
EXTT4=
EXTT5=
EXTT6=
EXTT7=
EXTT8=
EXTT9=
EXTT10=
EXTT11=
EXTT12=
EXTT13=
EXTT14=
PLAYORDER=
